# xmcd
#
# Track frame offsets:
#   150
#   13930
#   31326
#   48611
#   62189
#   74989
#   89562
#   103240
#   121923
#   132311
#   149950
#   161770
#   176082
#   190337
#   207812
#   220699
#   234313
#   249879
#   265262
#   277681
#
# Disc length: 3919 seconds
#
# Revision: 0
# Processed by: cddbd v1.5.1PL0 Copyright (c) Steve Scherf et al.
# Submitted via: Media_Universe 3.0
#
DISCID=3a0f4d14
DTITLE=George Strait - Carrying Your Love With Me and Easy Come Easy Go
DYEAR=1900
DGENRE=Country
TTITLE0=Round About Way
TTITLE1=Carrying Your Love With Me
TTITLE2=One Night At A Time
TTITLE3=She'll Leave You With A Smile
TTITLE4=Won't You Come Home ( and talk to a stranger)
TTITLE5=Today My World Slipped Away
TTITLE6=I've Got A Funny Feeling
TTITLE7=The Nerve
TTITLE8=That's Me (every change i get)
TTITLE9=A Real Good Place To Start
TTITLE10=Stay Out Of My Arms
TTITLE11=Just Look At Me
TTITLE12=Easy Come Easy Go
TTITLE13=I'd Like To Have That One Back
TTITLE14=Lovebug
TTITLE15=I Wasn't Foolin' Around
TTITLE16=Without Me Around
TTITLE17=The Man In Love With You
TTITLE18=That's Where My Baby Feels At Home
TTITLE19=We Must Be Loving Right
EXTD=
EXTT0=
EXTT1=
EXTT2=
EXTT3=
EXTT4=
EXTT5=
EXTT6=
EXTT7=
EXTT8=
EXTT9=
EXTT10=
EXTT11=
EXTT12=
EXTT13=
EXTT14=
EXTT15=
EXTT16=
EXTT17=
EXTT18=
EXTT19=
PLAYORDER=
